<svg version="1.2" xmlns="http://www.w3.org/2000/svg" 
	viewBox="0 0 682 672" width="682" height="672" 
	role="img" aria-label="person looking around and sounding out vowels">
	<style>
		.s0 { fill: #424242 } 
		.s1 { fill: #5aeab1 } 
		.s2 { fill: #3d3d3d } 
		.s3 { fill: #e59d65 } 
		.s4 { fill: #be6c31 } 
		.s5 { fill: #912626 } 
		.s6 { fill: #fefffe } 
		.s7 { fill: #cd4949 } 
		.s8 { fill: #a1a1a1 } 
		#pupils {
			transition: transform 1s;
			transform-origin: center;
			@media (prefers-reduced-motion: no-preference) {
				animation: pupils 4s infinite both;
			}
		}
		@keyframes pupils {
			0% { transform: translate(0, 0); }
			30% { transform: translate(-15px, 0); }
			60% { transform: translate(0, -10px); }
			90% { transform: translate(0, 20px); }
			100% { transform: translate(0, 0); }
		}
		#mouth {
			transition: transform 1s;
			transform-origin: 315px 478px;
			@media (prefers-reduced-motion: no-preference) {
				animation: mouth 3s infinite both;
			}
		}
		@keyframes mouth {
			<!-- 50% { transform: translate(40px, 10px) rotate(-25deg); } -->
			0% { transform: translate(0, 0) scale(1) rotate(0); }
			10% { transform: translate(43px, 0) scale(1, 1.1) rotate(-27deg); a }
			20% { transform: translate(43px, 0) scale(1, 0.75) rotate(-27deg); e }
			30% { transform: translate(43px, 0) scale(1.1, 0.25) rotate(-27deg); i }
			40% { transform: translate(33px, 0) scale(0.5, 0.9) rotate(-27deg); o }
			50% { transform: translate(33px, 0) scale(0.5, 0.5) rotate(-27deg); u }
			60% { transform: translate(0, 0) scale(1) rotate(0); }
		}
		text {
			font-family: arial;
			font-weight: bold;
			text-anchor: middle;
		}
		#text {
			opacity: 0;
			transform: translate(50px, 0);
			@media (prefers-reduced-motion: no-preference) {
				animation: text 3s infinite both;
			}
		}
		@keyframes text {
			0% { opacity: 0; }
			10% { opacity: 1; }
			50% { opacity: 1; }
			60% { opacity: 0; }
		}
		#speech_bubble {
			filter: drop-shadow(0 0 5px black) drop-shadow(0 0 10px lime) drop-shadow(0 0 15px cyan);
		}
		.vowel {
			fill: maroon;
			<!-- stroke: white; -->
			<!-- stroke-width: 2px; -->
			opacity: 0;
			@media (prefers-reduced-motion: no-preference) {
				animation: vowel 3s infinite both;
			}
		}
		#e { animation-delay: calc(3s / 10 * 1); }
		#i { animation-delay: calc(3s / 10 * 2); }
		#o { animation-delay: calc(3s / 10 * 3); }
		#u { animation-delay: calc(3s / 10 * 4); }
		@keyframes vowel {
			0% { opacity: 0; }
			10% { opacity: 1; }
			20% { opacity: 0; }
		}
	</style>
	<defs>
        <filter id="outline">
          <feColorMatrix values="0 0 0 0 0
                                 0 0 0 0 0
                                 0 0 0 0 0
                                 0 0 0 1 0"/>
          <feMorphology operator="dilate" radius="2"/>
        </filter>
    </defs>
	<g id="avatar">
		<path id="background" class="s1" d="m23.5 2.53c-3.3 1.36-7.57 3.76-9.5 5.32-1.93 1.56-4.87 4.6-6.55 6.74-1.68 2.15-4.04 6.5-5.25 9.66l-2.2 5.75c0.02 474.69 0.36 613.04 0.77 613.69 0.47 0.77 2.89-1.7 6.73-6.86 3.3-4.44 9.82-11.73 14.5-16.21 4.68-4.48 11.42-10.22 15-12.77 3.58-2.55 10.55-6.69 15.5-9.19 4.95-2.51 11.03-5.3 13.5-6.21 2.47-0.9 7.42-2.51 11-3.58 3.58-1.06 11-2.59 16.5-3.38 6.43-0.94 18.29-1.46 33.25-1.47l23.25-0.02v-206c-7.36 0.53-12.2 0.28-15.5-0.21-3.3-0.48-8.25-2.03-11-3.43-2.75-1.41-7.36-4.87-10.25-7.71-3.12-3.07-6.36-7.58-8-11.15-2.45-5.34-2.75-7.16-2.75-16.5 0-9.58 0.26-11.06 3-16.88 1.85-3.94 4.92-8.19 8-11.09 2.75-2.59 7.47-5.98 10.5-7.53 4.58-2.35 7.19-2.92 15.68-3.41l10.18-0.59c0.77-80.84 0.9-83.39 3.01-90.5 1.22-4.13 4-11.1 6.16-15.5 2.17-4.4 6.34-11.15 9.28-15 2.93-3.85 8.67-9.82 12.76-13.27 4.45-3.76 11.43-8.24 17.43-11.2 5.5-2.72 12.7-5.59 16-6.39 3.3-0.79 7.57-1.72 9.5-2.05 3.2-0.56 3.88-1.35 8-9.24 2.47-4.74 7.43-12.28 11.01-16.74 3.58-4.46 10.33-11.18 15-14.94 4.97-4 12.64-8.86 18.49-11.71 5.5-2.68 13.6-5.88 18-7.1 5.94-1.65 10.88-2.24 19.18-2.29 11.11-0.07 11.19-0.05 14.25 2.93q3.08 3 3.64 7c0.34 2.45-0.06 5.74-1.03 8.5-0.87 2.47-1.57 4.84-1.56 5.25 0.01 0.41 1.93-0.09 4.27-1.12 2.34-1.03 7.4-2.85 11.25-4.04 3.85-1.2 10.38-2.92 14.5-3.84 5.57-1.23 12.4-1.65 26.5-1.63 14.35 0.02 20.83 0.45 26.5 1.75 4.13 0.95 10.88 2.85 15 4.23 4.13 1.38 11.66 4.5 16.75 6.95 7.08 3.4 9.84 5.33 11.78 8.2 1.9 2.82 2.55 5.11 2.61 9.25 0.04 3.08-0.59 6.82-1.44 8.5-0.83 1.65-2.69 4.12-4.13 5.5-1.44 1.37-2.62 2.72-2.61 3 0.01 0.27 2.83 0.88 6.28 1.34 3.44 0.46 9.86 1.96 14.26 3.33 4.4 1.38 10.93 4.08 14.5 6.01 3.57 1.93 8.75 5.21 11.5 7.28 2.75 2.07 6.63 5.29 8.63 7.15 2 1.87 5.99 6.54 8.88 10.39 2.89 3.85 6.49 9.47 8 12.5 1.52 3.02 3.96 9.32 5.43 14 1.47 4.67 3.08 12.77 3.59 18 0.51 5.22 0.93 24.35 0.94 42.5l0.02 33c18.83 1.08 21.41 1.64 26.01 4 3.02 1.55 7.75 4.94 10.5 7.53 3.08 2.9 6.15 7.15 8 11.09 2.74 5.82 3 7.3 3 16.88 0 9.41-0.29 11.12-2.8 16.5-1.54 3.3-4.47 7.74-6.5 9.87-2.04 2.13-5.95 5.34-8.7 7.14-2.75 1.79-7.02 3.82-9.5 4.5-2.48 0.69-7.99 1.19-12.25 1.12l-7.75-0.13v206c43.84 0 55.06 0.46 61.75 1.48 5.36 0.81 13.8 2.66 18.75 4.1 4.95 1.45 12.83 4.42 17.5 6.59 4.67 2.17 12.77 6.83 18 10.36 5.23 3.53 11.75 8.58 14.5 11.23 2.75 2.64 7.66 7.72 10.91 11.27 3.26 3.56 6.5 7.82 7.22 9.47 1.07 2.47 1.26-51.34 1.08-304l-0.21-307c-3.95-8.53-7.1-13.18-9.55-15.84-2.68-2.91-7.03-6.09-10.93-8l-6.48-3.16-625.04-0.46z"/>
		<path id="head" class="s3" d="m212.5 209.13c-4.61 0.59-9.73 2.19-15 4.69-5.43 2.58-9.85 5.63-13.75 9.49-3.16 3.13-6.86 7.6-8.21 9.94-1.35 2.34-3.4 6.95-4.56 10.25-1.15 3.3-2.41 9.94-2.79 14.76-0.38 4.81-0.35 8.75 0.06 8.75 0.41-0.01 2.66-1.13 5-2.5l4.25-2.49c99.35 0 111.94 0.29 115.5 1.36 2.48 0.74 6.98 2.6 10 4.13 3.02 1.53 8.49 5.75 12.15 9.38 4.46 4.43 7.67 8.75 9.73 13.11 1.69 3.57 3.54 8.98 4.11 12 0.57 3.02 1.03 7.86 1.02 10.75l-0.01 5.25h24c0.04-10.46 0.51-15.52 1.08-18 0.57-2.48 2.24-6.98 3.72-10 1.48-3.02 5.44-8.43 8.8-12 3.43-3.65 8.7-7.91 12.01-9.7 3.24-1.76 8.14-3.89 10.89-4.74 4.24-1.3 13.38-1.54 60-1.56 53.39-0.02 55.12 0.04 59 2.02l4 2.04c-1.16-13.22-2.53-19.87-3.78-23.31-1.26-3.44-4.07-8.91-6.25-12.16-2.18-3.24-5.99-7.59-8.47-9.66-2.48-2.06-7.88-5.37-12-7.35-5.63-2.7-9.6-3.82-15.96-4.52-4.65-0.5-11.17-0.56-14.5-0.11-3.32 0.44-10.99 2.38-17.04 4.3-6.05 1.92-19.1 5.57-29 8.1-9.9 2.53-24.52 5.71-32.5 7.07-7.98 1.35-19 2.77-24.5 3.15-5.94 0.41-14.87 0.21-22-0.5-6.6-0.66-17.18-2.11-23.5-3.22-6.32-1.11-19.82-4.17-30-6.81-10.18-2.63-21.65-5.78-25.5-7-3.85-1.21-9.25-2.8-12-3.52-2.75-0.73-7.7-1.54-11-1.81-3.3-0.26-9.15-0.07-13 0.42zm-44.07 90.57c-0.42 0.35-0.69 2.58-0.6 4.97 0.1 2.38-0.05 4.33-0.33 4.33-0.28 0-2.64-1.36-5.25-3.02-2.61-1.66-7-3.74-9.75-4.64-3.72-1.21-7.31-1.5-14-1.13-7.26 0.4-10.06 1.03-14.5 3.3-3.03 1.54-7.75 4.93-10.5 7.52-3.08 2.9-6.15 7.15-8 11.09-2.74 5.82-3 7.3-3 16.88 0 9.34 0.3 11.16 2.75 16.5 1.64 3.57 4.88 8.08 8 11.15 2.89 2.84 7.5 6.3 10.25 7.71 2.75 1.4 7.7 2.95 11 3.43 3.3 0.49 8.14 0.74 10.75 0.55l4.75-0.34v157h382v-157c12.01 0.2 17.52-0.3 20-0.99 2.48-0.68 6.75-2.71 9.5-4.5 2.75-1.8 6.66-5.01 8.7-7.14 2.03-2.13 4.96-6.57 6.5-9.87 2.51-5.38 2.8-7.09 2.8-16.5 0-9.58-0.26-11.06-3-16.88-1.85-3.94-4.92-8.19-8-11.09-2.75-2.59-7.48-5.98-10.5-7.53-4.57-2.34-7.1-2.89-15-3.26-8.19-0.38-10.33-0.13-15.5 1.86-3.3 1.26-7.91 3.79-10.25 5.6l-4.25 3.3c0-7.75-0.11-10.01-0.25-10.03-0.14-0.02-1.6 0.65-3.25 1.48-1.65 0.83-4.88 1.86-7.18 2.28l-4.17 0.77c-0.73 41.88-0.9 43.42-3.52 51-1.52 4.4-3.93 10.02-5.36 12.5-1.43 2.48-4.48 6.98-6.77 10-2.3 3.02-7.06 7.82-10.59 10.65-3.52 2.83-9.56 6.72-13.41 8.65-3.85 1.93-9.7 4.34-13 5.35-4.56 1.4-9.24 1.84-19.5 1.84-10.29 0-14.93-0.44-19.5-1.85-3.3-1.01-9.15-3.39-13-5.28-3.85-1.89-10.34-6.23-14.43-9.65-4.79-4-9.33-9.05-12.78-14.21-2.95-4.4-6.29-10.48-7.43-13.5-1.14-3.02-2.59-8.09-3.22-11.26-1.05-5.3-1.42-5.85-4.64-6.98-1.93-0.67-6.65-1.2-10.5-1.18-3.85 0.02-7.9 0.52-9 1.12-1.4 0.76-2.4 3.01-3.31 7.44-0.72 3.5-3.27 10.41-5.67 15.36-2.4 4.95-6.49 11.48-9.09 14.5-2.59 3.02-7.47 7.69-10.83 10.38-3.35 2.68-8.58 6.12-11.6 7.64-3.02 1.53-8.65 3.83-12.5 5.13-6.06 2.03-8.89 2.34-21 2.31-12.54-0.03-14.84-0.32-22-2.75-4.4-1.49-10.93-4.45-14.5-6.59-3.57-2.13-9.15-6.29-12.39-9.24-3.25-2.96-7.57-7.86-9.61-10.88-2.05-3.02-4.74-7.52-5.99-10-1.25-2.48-3.14-7.2-4.19-10.5-1.05-3.3-2.39-10.95-2.98-17-0.58-6.05-0.8-15.95-0.49-22l0.57-11c-8.85-1.87-12.61-3.32-14.07-4.42-1.46-1.11-2.99-1.73-3.42-1.38z"/>
		<path id="hair" class="s2" d="m302 84.11c-3.02 0.54-8.88 2.12-13 3.51-4.13 1.4-10.88 4.29-15 6.42-4.13 2.14-11.32 6.95-15.99 10.68-4.67 3.73-11.42 10.43-15 14.89-3.58 4.46-8.54 12-11.01 16.74-4.12 7.89-4.8 8.68-8 9.24-1.93 0.33-6.2 1.26-9.5 2.05-3.3 0.8-10.5 3.67-16 6.39-6 2.96-12.98 7.44-17.43 11.2-4.09 3.45-9.83 9.42-12.76 13.27-2.94 3.85-7.11 10.6-9.28 15-2.16 4.4-4.94 11.38-6.16 15.5-2.12 7.14-2.24 9.51-2.55 49.75l-0.32 42.25c4.26 0.77 8.09 2.57 11.25 4.5 4.05 2.47 5.91 3.13 6.28 2.25 0.29-0.69 0.41-3.31 0.25-5.83-0.15-2.51-0.81-5.21-1.46-6-0.65-0.78-1.89-3.11-2.75-5.17-0.87-2.06-1.58-5.21-1.59-7-0.01-1.79 0.69-5.27 1.56-7.75 0.87-2.48 2.12-5.14 2.77-5.92 0.65-0.77 1.32-4.15 1.48-7.5 0.17-3.34 0.69-8.33 1.17-11.08 0.49-2.75 1.79-7.47 2.9-10.5 1.11-3.03 4.03-8.2 6.48-11.5 2.45-3.3 6.41-7.55 8.81-9.45 2.39-1.9 7.5-4.92 11.35-6.71q7-3.27 15-4.24c4.84-0.59 10.76-0.63 15-0.1 3.85 0.48 9.03 1.53 11.5 2.34 2.47 0.81 9 2.85 14.5 4.53 5.5 1.69 16.3 4.61 24 6.5 7.7 1.88 19.18 4.34 25.5 5.46 6.32 1.12 16.9 2.58 23.5 3.24 7.13 0.71 16.06 0.91 22 0.5 5.5-0.38 16.52-1.8 24.5-3.15 7.98-1.36 22.6-4.54 32.5-7.07 9.9-2.53 22.95-6.18 29-8.1 6.05-1.92 13.93-3.86 17.5-4.3 3.6-0.45 10.07-0.4 14.5 0.11 5.77 0.67 10.09 1.93 15.5 4.52 4.12 1.98 9.52 5.29 12 7.35 2.48 2.07 6.29 6.42 8.47 9.66 2.18 3.25 4.99 8.72 6.25 12.16 1.25 3.44 2.57 9.96 2.93 14.5 0.58 7.3 1.02 8.67 3.75 11.86 1.74 2.02 3.71 5.97 4.5 9 1.11 4.29 1.16 6.31 0.24 9.89-0.64 2.48-2.74 6.41-4.65 8.75-2.95 3.6-3.49 5.02-3.49 9.25v5c7.36-5.55 11.64-7.92 14.25-8.83l4.76-1.67c-0.05-51.93-0.47-71.28-0.98-76.5-0.51-5.22-2.12-13.32-3.59-18-1.47-4.68-3.91-10.97-5.43-14-1.51-3.03-5.11-8.65-8-12.5-2.89-3.85-6.88-8.52-8.88-10.39-2-1.86-5.88-5.08-8.63-7.15-2.75-2.07-7.93-5.35-11.5-7.28-3.57-1.93-10.1-4.63-14.5-6.01-4.4-1.37-10.82-2.87-14.26-3.33-3.45-0.46-6.27-1.06-6.28-1.34-0.01-0.28 1.17-1.62 2.61-3 1.44-1.37 3.3-3.85 4.13-5.5 0.85-1.68 1.48-5.42 1.44-8.5-0.06-4.14-0.71-6.43-2.61-9.25-1.94-2.87-4.7-4.8-11.78-8.2-5.09-2.45-12.63-5.57-16.75-6.95-4.13-1.38-10.88-3.28-15-4.23-5.67-1.3-12.15-1.73-26.5-1.75-14.1-0.02-20.93 0.4-26.5 1.63-4.13 0.92-10.65 2.64-14.5 3.84-3.85 1.19-8.91 3.01-11.25 4.04-2.34 1.03-4.26 1.53-4.27 1.12-0.01-0.41 0.69-2.78 1.56-5.25 0.97-2.76 1.37-6.05 1.03-8.5q-0.56-4-3.63-7c-2.89-2.83-3.56-3.01-11.75-3.18-4.78-0.1-11.17 0.26-14.19 0.79z"/>
		<path id="glasses_and_shirt" class="s0" d="m173 264.55c-3.5 1.96-4.69 2.24-5.34 1.24-0.51-0.8-0.61-0.43-0.25 0.96 0.37 1.41 0.01 2.72-0.95 3.5-0.85 0.69-2.21 3.27-3.01 5.75-0.81 2.48-1.46 6.07-1.44 8 0.02 1.93 0.92 5.41 2.01 7.75 1.09 2.34 2.43 4.48 2.98 4.75 0.55 0.27 0.71 1.51 0.36 2.75-0.52 1.85-0.39 2.04 0.75 1.05 1.1-0.96 1.91-0.8 3.89 0.79 1.37 1.1 5.07 2.54 8.21 3.2l5.71 1.21c-0.88 17.05-0.66 26.95-0.08 33 0.59 6.05 1.93 13.7 2.98 17 1.05 3.3 2.94 8.02 4.19 10.5 1.25 2.48 3.94 6.98 5.99 10 2.04 3.02 6.36 7.92 9.61 10.88 3.24 2.95 8.82 7.11 12.39 9.24 3.57 2.14 10.1 5.1 14.5 6.59 7.16 2.43 9.46 2.72 22 2.75 12.11 0.03 14.94-0.28 21-2.31 3.85-1.3 9.48-3.6 12.5-5.13 3.02-1.52 8.25-4.96 11.6-7.64 3.36-2.69 8.24-7.36 10.83-10.38 2.6-3.02 6.69-9.55 9.09-14.5 2.4-4.95 4.95-11.86 5.67-15.36 0.91-4.43 1.91-6.68 3.31-7.44 1.1-0.6 5.15-1.1 9-1.12 3.85-0.02 8.57 0.51 10.5 1.18 3.22 1.13 3.59 1.68 4.64 6.98 0.63 3.17 2.08 8.24 3.22 11.26 1.14 3.02 4.48 9.1 7.43 13.5 3.45 5.16 7.99 10.21 12.78 14.21 4.09 3.42 10.58 7.76 14.43 9.65 3.85 1.89 9.7 4.27 13 5.28 4.57 1.41 9.21 1.85 19.5 1.85 10.26 0 14.94-0.44 19.5-1.84 3.3-1.01 9.15-3.42 13-5.35 3.85-1.93 9.89-5.82 13.41-8.65 3.53-2.83 8.29-7.63 10.59-10.65 2.29-3.02 5.34-7.52 6.77-10 1.43-2.48 3.84-8.1 5.36-12.5 2.62-7.58 2.79-9.13 3.15-29.5l0.38-21.5c10.83-2.29 12.66-3.31 16.64-7.25 3.5-3.47 5.16-6.1 6.15-9.75 1.14-4.23 1.13-5.83-0.05-10.36-0.77-2.95-2.56-6.77-3.97-8.5-1.41-1.73-4.56-4.15-7-5.38-4.43-2.23-4.49-2.23-59.43-2.23-46.67-0.01-55.76 0.22-60 1.53-2.75 0.85-7.65 2.98-10.89 4.74-3.31 1.79-8.58 6.05-12.01 9.7-3.36 3.57-7.32 8.98-8.8 12-1.48 3.02-3.15 7.52-3.72 10-0.57 2.48-1.04 7.54-1.06 11.25l-0.02 6.75h-24c0.02-8.14-0.44-12.98-1.01-16-0.57-3.02-2.42-8.43-4.11-12-2.06-4.36-5.27-8.68-9.73-13.11-3.66-3.63-9.13-7.85-12.15-9.38-3.02-1.53-7.52-3.39-10-4.13-3.56-1.07-16.15-1.36-60-1.36h-55.5zm-23 294.96v24.5c-38.21 0.03-50.07 0.55-56.5 1.48-5.5 0.8-12.92 2.33-16.5 3.39-3.58 1.07-8.53 2.68-11 3.58-2.47 0.9-8.55 3.69-13.5 6.2-4.95 2.51-11.92 6.65-15.5 9.2-3.58 2.55-10.26 8.24-14.87 12.64-4.6 4.4-11.01 11.49-14.25 15.76-3.23 4.26-5.88 8.65-5.88 9.75 0 1.1 0.74 3.46 1.65 5.25 0.9 1.78 3.27 5.2 5.25 7.59 1.98 2.39 5.62 5.62 8.1 7.18 2.48 1.56 6.52 3.54 9 4.39 4.03 1.39 36.84 1.56 315 1.57 309.05 0.02 310.53 0.01 316-2 3.02-1.11 7.24-3.25 9.36-4.75 2.13-1.51 5.32-4.53 7.1-6.73 1.79-2.2 4.04-5.58 5-7.5 0.97-1.93 1.97-5.53 2.23-8 0.39-3.73 0.03-5.11-2.12-8-1.43-1.93-6.75-7.71-11.83-12.85-5.31-5.38-13.28-12.05-18.74-15.7-5.23-3.49-13.33-8.12-18-10.29-4.67-2.17-12.55-5.13-17.5-6.58-4.95-1.45-13.39-3.3-18.75-4.11-6.69-1.01-17.91-1.47-35.75-1.47h-26v-49h-382z"/>
		<path id="nose" class="s4" d="m333.93 374.19c-3.45 5.12-7.78 12.46-9.61 16.31-1.86 3.9-3.32 8.55-3.3 10.5 0.01 1.93 0.84 5.3 1.84 7.5 1 2.2 3.35 5.36 5.23 7.03 1.87 1.67 5.43 3.64 7.91 4.38 3.78 1.13 5.3 1.13 9.5 0 2.75-0.74 6.54-2.71 8.41-4.38 1.88-1.67 4.23-4.83 5.23-7.03 1-2.2 1.83-5.57 1.85-7.5 0.02-2.09-1.54-6.72-3.87-11.5-2.15-4.4-6.31-11.56-9.26-15.91-2.95-4.34-5.87-8.08-6.5-8.31-0.63-0.22-3.97 3.79-7.43 8.91z"/>
		<path id="glasses_dots" class="s8" d="m180.12 278.55q-2.4 1.56-2.29 4.26c0.06 1.48 0.91 3.47 1.89 4.41 0.98 0.95 2.68 1.76 3.78 1.79 1.1 0.03 2.78-0.75 3.72-1.73 0.95-0.98 1.74-3.02 1.75-4.53 0.02-1.76-0.78-3.29-2.22-4.26-1.24-0.83-2.7-1.51-3.25-1.51-0.55 0-2.07 0.71-3.38 1.57zm317.78-0.48c-0.88 0.56-2.12 1.9-2.75 2.97-0.87 1.48-0.87 2.52 0 4.21 0.63 1.24 1.64 2.58 2.25 2.98 0.6 0.41 2 0.76 3.1 0.79 1.1 0.02 2.78-0.76 3.72-1.74 0.95-0.98 1.74-2.79 1.75-4.03 0.02-1.24-0.87-3.15-1.97-4.25-1.1-1.1-2.56-1.99-3.25-1.97-0.69 0.02-1.97 0.49-2.85 1.04zm-11.51 44.93c0 6.87 0.16 9.57 0.35 6 0.2-3.57 0.2-9.2 0-12.5-0.19-3.3-0.35-0.38-0.35 6.5zm-168.02 0.5c0 5.5 0.17 7.52 0.37 4.5 0.2-3.02 0.2-7.52-0.01-10-0.2-2.48-0.37 0-0.36 5.5z"/>
		<path id="eye_whites" class="s6" d="m225 274.88c-3.03 0.98-6.85 2.47-8.5 3.32-1.65 0.85-5.18 3.74-7.85 6.42-2.67 2.68-6.27 7.79-8 11.35-3.12 6.42-3.15 6.63-3.49 24.5-0.19 10.26 0.14 20.61 0.75 24.03 0.6 3.3 2.55 9.58 4.34 13.96 2.57 6.29 4.71 9.51 10.25 15.39 3.85 4.09 9.7 9.25 13 11.47 3.3 2.21 9.15 5.14 13 6.5 5.98 2.11 8.75 2.47 19 2.46 10.06-0.02 13.13-0.41 19-2.44 3.85-1.33 9.02-3.58 11.5-4.99 2.48-1.42 7.39-5.23 10.92-8.46 3.53-3.24 8.04-8.37 10.02-11.39 1.99-3.02 4.86-9.32 6.4-14 2.77-8.42 2.8-8.7 2.48-30.5-0.31-21.07-0.42-22.21-2.8-27-1.36-2.75-4.96-7.48-8-10.51-3.03-3.04-7.66-6.52-10.27-7.75-2.61-1.23-6.66-2.68-9-3.22-2.34-0.53-16.18-0.96-30.75-0.94-22.59 0.02-27.31 0.29-32 1.8zm167.5-0.01c-2.75 0.99-6.8 2.93-9 4.32-2.2 1.38-5.58 4.27-7.52 6.41-1.93 2.15-4.49 5.47-5.69 7.4-1.2 1.93-2.93 6.43-3.86 10-1.39 5.37-1.59 9.71-1.16 25 0.41 14.94 0.89 19.56 2.48 24 1.08 3.02 2.99 7.52 4.25 10 1.26 2.48 4.36 7.17 6.89 10.43 2.54 3.27 6.63 7.46 9.11 9.33 2.48 1.86 7.65 4.93 11.5 6.81 3.85 1.88 10.26 4.09 14.25 4.92 3.99 0.83 9.61 1.5 12.5 1.49 2.89-0.01 8.4-0.69 12.25-1.51 3.85-0.83 10.6-3.27 15-5.42 4.62-2.27 10.09-5.96 12.95-8.74 2.72-2.64 6.55-6.83 8.52-9.31 1.97-2.48 5.14-8.1 7.05-12.5l3.48-8c0-47.68-0.12-49.24-2.19-53.5-1.21-2.48-3.94-6.52-6.09-9-2.14-2.48-6.1-5.94-8.8-7.7-2.71-1.75-7.62-3.89-10.92-4.75-4.74-1.23-11.67-1.55-33-1.52-23.4 0.04-27.67 0.28-32 1.84z"/>
		<path id="pupils" class="s2" d="m268.75 282.62c-1.49 0.32-1.71 1.4-1.5 7.38 0.14 3.85 0.02 7.12-0.25 7.25-0.27 0.14-1.65 2.5-3.05 5.25-1.4 2.75-3.1 5-3.78 5-0.69 0-1.56 0.6-1.96 1.34-0.39 0.73-0.94 1.23-1.21 1.1-0.27-0.13-1.4 0.02-2.5 0.32-1.1 0.3-3.24 0.82-4.75 1.15l-2.75 0.59c0.47 22.86 0.92 30.62 1.3 32 0.37 1.37 1.14 2.61 1.69 2.75 0.56 0.14 0.79 0.7 0.51 1.25-0.28 0.55 0.96 2.87 2.75 5.16 1.79 2.28 4.15 4.64 5.25 5.25 1.1 0.6 2.23 1.36 2.5 1.69 0.27 0.33 1.4 1.06 2.5 1.63 1.1 0.57 4.48 1.54 7.5 2.17 4.26 0.89 6.81 0.86 11.27-0.13 3.18-0.7 5.76-1.61 5.75-2.02-0.01-0.41 0.43-0.52 0.98-0.25 0.55 0.27 1.64-0.18 2.43-1 0.78-0.82 1.91-1.5 2.5-1.5 0.59 0 2.63-1.91 4.54-4.25 1.91-2.34 3.26-4.59 3-5-0.26-0.41 0-0.86 0.58-1 0.57-0.14 1.18-0.93 1.34-1.75 0.17-0.82 0.89-2.85 1.62-4.5 0.79-1.8 1.51-8.78 1.81-17.5 0.37-10.86 0.21-14.31-0.66-13.75-0.81 0.52-0.97 0.07-0.54-1.5 0.34-1.24 0.01-4.18-0.75-6.53-0.75-2.35-1.71-4.27-2.12-4.25-0.41 0.02-0.52-0.42-0.25-0.97 0.27-0.55-0.74-2.52-2.25-4.38-1.51-1.85-3.88-4.31-5.25-5.46-1.38-1.16-2.85-1.77-3.28-1.38-0.43 0.4-0.76 0.16-0.75-0.53 0.02-0.69-2.11-1.93-4.72-2.76-2.61-0.83-7.23-1.46-10.25-1.39-3.02 0.07-6.29 0.3-7.25 0.52zm133.13 0.13c-0.06 0.41-0.03 3.45 0.07 6.75 0.11 3.44-0.44 7.49-1.29 9.5-0.81 1.93-2.4 4.4-3.55 5.5-1.14 1.1-1.86 2.34-1.59 2.75 0.26 0.41 0.14 0.66-0.27 0.54-0.41-0.11-2.1 0.51-3.75 1.39-1.65 0.87-4.91 1.86-7.25 2.2-3.14 0.46-4.25 1.08-4.27 2.37-0.01 1.5-0.15 1.53-0.98 0.25-0.66-1.01-0.98 2.55-1.01 11-0.03 9.6 0.36 13.43 1.66 16.5 0.94 2.2 1.83 4.68 1.98 5.5 0.15 0.82 0.75 1.61 1.32 1.75 0.58 0.14 0.82 0.7 0.55 1.25-0.27 0.55-0.05 1 0.5 1 0.55 0 0.99 0.56 0.98 1.25-0.01 0.69 1.35 2.6 3.02 4.25 1.67 1.65 3.03 2.66 3.02 2.25-0.01-0.41 0.88 0.15 1.98 1.25 1.1 1.1 3.91 2.51 6.25 3.12 2.34 0.62 6.05 1.16 8.25 1.2 2.2 0.04 5.8-0.28 8-0.7 2.2-0.43 5.8-1.83 8-3.1 2.2-1.28 5.13-3.51 6.5-4.95 1.38-1.44 2.05-2.6 1.5-2.58-0.55 0.02-0.1-0.62 1-1.44 1.1-0.82 1.55-1.51 1-1.53-0.55-0.03-0.43-0.38 0.27-0.79 0.7-0.4 1.42-1.41 1.6-2.23 0.18-0.82 0.84-2.74 1.48-4.25 0.71-1.69 1.15-9 1.16-19 0.01-12.14-0.4-17.64-1.62-21.75-1.29-4.34-2.88-6.72-7.51-11.25-3.23-3.16-6.33-5.52-6.88-5.25-0.55 0.27-0.99 0.16-0.98-0.25 0.02-0.41-1.67-1.31-3.75-1.98-2.07-0.68-6.36-1.24-9.52-1.25-3.16-0.01-5.8 0.32-5.87 0.73z"/>
		<g id="mouth">
			<path id="mouth_hole" class="s5" d="m266.42 426.25c-1.51 1.79-3.86 5.73-5.24 8.75-1.46 3.22-2.66 7.99-2.89 11.5-0.22 3.3-0.03 6.55 0.41 7.23 0.59 0.91 1.72 0.97 4.3 0.25 1.92-0.54 6.87-0.98 11-0.99 4.12 0 10.2 0.71 13.5 1.57 3.3 0.86 8.65 3 11.89 4.75 3.25 1.76 8.31 5.44 11.25 8.19 2.94 2.75 6.95 7.7 8.9 11 1.95 3.3 4.54 9.1 5.75 12.88l2.21 6.88c6.2-0.91 10.7-2.5 14-4.11 3.46-1.69 7.6-4.78 9.79-7.29 2.08-2.4 4.67-6.72 5.75-9.61 1.17-3.14 1.96-7.77 1.97-11.5 0.01-3.44-0.67-8.39-1.5-11l-1.51-4.75c-8.42 5.65-12.28 7.29-15 7.66-2.48 0.33-6.75 0.31-9.5-0.04-2.75-0.36-6.91-1.76-9.25-3.13-2.34-1.37-5.62-4.4-7.31-6.74-1.68-2.34-3.25-5.26-3.5-6.5-0.24-1.24-0.78-2.26-1.19-2.27-0.41-0.01-2.77 0.67-5.25 1.52-2.48 0.85-6.64 1.53-9.25 1.52-2.77-0.01-6.94-0.99-10-2.35-2.89-1.29-6.71-3.99-8.5-6-1.79-2.02-4.04-5.25-5-7.19-0.96-1.94-2.05-3.51-2.42-3.5-0.37 0.01-1.9 1.48-3.41 3.27z"/>
			<path id="teeth" class="s6" d="m278.5 417.55c-2.2 0.81-4.8 2.25-5.78 3.21-0.98 0.96-1.78 2.42-1.77 3.24 0 0.82 1.31 3.52 2.91 6 1.61 2.49 5.29 6.07 8.25 8 4.98 3.27 5.88 3.5 13.36 3.5 4.42 0 9.6-0.38 11.53-0.84 3.22-0.78 3.56-0.64 4.25 1.75 0.41 1.42 2.66 4.68 5 7.24 2.34 2.56 6.05 5.47 8.25 6.48 2.68 1.22 6.39 1.83 11.25 1.85 5.12 0.01 8.5-0.55 11.5-1.94 2.34-1.07 5.07-2.76 6.06-3.75 1.17-1.15 1.62-2.6 1.25-4.04-0.31-1.24-2.92-4.21-5.81-6.61-2.89-2.39-7.27-5.04-9.75-5.87-2.48-0.84-7.87-2.56-12-3.83-5.29-1.62-9.42-3.78-14-7.3-3.57-2.76-8.3-5.82-10.5-6.8-2.79-1.25-6.42-1.79-12-1.77-4.48 0.01-9.76 0.66-12 1.48z"/>
			<path id="tongue" class="s7" d="m262.25 454.09c-2.88 0.81-3.19 1.22-2.68 3.66 0.31 1.51 2 4.97 3.75 7.67 1.75 2.71 6.61 8.11 10.8 12 5.35 4.97 10.42 8.49 17 11.8 5.16 2.6 12.08 5.44 15.38 6.31 3.3 0.87 9.3 1.89 13.34 2.27l7.34 0.7c-1.13-4.65-2.28-8.25-3.28-11-1-2.75-3.55-7.7-5.67-11-2.12-3.3-6.07-7.91-8.79-10.24-2.72-2.33-7.42-5.56-10.44-7.19-3.02-1.62-8.2-3.65-11.5-4.51-3.3-0.86-9.6-1.53-14-1.47-4.4 0.05-9.46 0.5-11.25 1z"/>
		</g>
		<g id="text">
			<g id="speech_bubble">
				<polygon points="375 460 420 430 420 490" fill="white" stroke="white" />
				<rect x="420" y="400" width="120" height="120" fill="white" stroke="white" rx="20" />
			</g>
			<text id="a" class="vowel" x="480" y="490" font-size="100">a</text>
			<text id="e" class="vowel" x="480" y="490" font-size="100">e</text>
			<text id="i" class="vowel" x="480" y="490" font-size="100">i</text>
			<text id="o" class="vowel" x="480" y="490" font-size="100">o</text>
			<text id="u" class="vowel" x="480" y="490" font-size="100">u</text>
		</g>
	</g>
</svg>